PathFileType	4	(X/Y/Z)	./resultDataOpenSim/trcMotMarkerGrf/sub09/qtm-14-04.trc
DataRate	CameraRate	NumFrames	NumMarkers	Units	OrigDataRate	OrigDataStartFrame	OrigNumFrames
250.000000	250.000000	15	24	m	250.000000	420	479
Frame#	Time	L.Toe.Tip			R.Toe.Tip			L.Ankle.Lat			R.Ankle.Lat			L.Ankle.Med			R.Ankle.Med			L.Heel			R.Heel			L.Knee.Lat			R.Knee.Lat			L.Knee.Med			R.Knee.Med			L.Thigh.Upper			R.Thigh.Upper			L.ASIS			R.ASIS			V.Sacral			L.Acromium			R.Acromium			C7			L.Elbow			R.Elbow			L.Wrist.Lat			R.Wrist.Lat
		X1	Y1	Z1	X2	Y2	Z2	X3	Y3	Z3	X4	Y4	Z4	X5	Y5	Z5	X6	Y6	Z6	X7	Y7	Z7	X8	Y8	Z8	X9	Y9	Z9	X10	Y10	Z10	X11	Y11	Z11	X12	Y12	Z12	X13	Y13	Z13	X14	Y14	Z14	X15	Y15	Z15	X16	Y16	Z16	X17	Y17	Z17	X18	Y18	Z18	X19	Y19	Z19	X20	Y20	Z20	X21	Y21	Z21	X22	Y22	Z22	X23	Y23	Z23	X24	Y24	Z24

420	1.676	1.7560223	0.144098	-0.082114759	1.0672319	0.039709135	0.062967034	1.6046937	0.10416502	-0.10457828	0.92957109	0.089025682	0.093873274	1.628103	0.13252979	-0.012521636	0.95384148	0.12526433	0.004588428	1.5654696	0.038972895	-0.050511934	0.85883491	0.088556326	0.041591378	1.4443501	0.4911492	-0.12878046	1.159013	0.49175078	0.16537257	1.4505109	0.48033646	-0.0019562838	1.1446735	0.48490621	0.039490993	1.2675276	0.86321841	-0.14961706	1.2254563	0.88987986	0.21756482	1.3319797	0.9583033	-0.087235409	1.3219507	0.97219316	0.15343223	1.1579302	1.0124785	0.015872705	1.3087657	1.4068727	-0.16209964	1.2995895	1.4356174	0.16909295	1.2327402	1.4703039	0.0012592304	1.1552544	1.0711494	-0.20283366	1.1734165	1.0865667	0.27350977	1.2520911	0.83606935	-0.27003751	1.3925159	0.91087607	0.26076832
421	1.68	1.7598845	0.1407029	-0.082764793	1.0674231	0.039816851	0.063079861	1.6081261	0.10215143	-0.10451265	0.93023941	0.09040928	0.094216964	1.6322031	0.13042848	-0.012515722	0.95490252	0.1263962	0.0051174898	1.5684489	0.037450123	-0.050257761	0.85959544	0.090617878	0.042198762	1.4512642	0.4906406	-0.1291004	1.1641842	0.49067312	0.1654475	1.4583814	0.48036348	-0.0022255461	1.1497896	0.48373119	0.03959967	1.2740019	0.86214095	-0.15029942	1.230384	0.88885086	0.2171301	1.3381684	0.95697839	-0.087701957	1.3278903	0.97095836	0.15317471	1.16395	1.0113154	0.015023796	1.3140551	1.4058918	-0.16248731	1.3044581	1.4344882	0.16875979	1.2378086	1.4692171	0.00080110931	1.1607725	1.0700452	-0.20346634	1.1787883	1.085357	0.27296292	1.2578323	0.8350318	-0.27049176	1.397461	0.90932082	0.26077852
422	1.684	1.7632869	0.13665154	-0.083254344	1.0676092	0.039897574	0.063241107	1.6111138	0.099985279	-0.10449384	0.93109335	0.09184481	0.094712881	1.6357496	0.12805583	-0.012495988	0.9560416	0.12759405	0.0056644648	1.570823	0.035777249	-0.050124896	0.86043248	0.09279991	0.042843648	1.4583268	0.49015588	-0.12943975	1.1693436	0.48957282	0.16565411	1.4663142	0.4804899	-0.0024527345	1.1553051	0.48250588	0.039966747	1.2801798	0.86127007	-0.15104347	1.2352199	0.88781296	0.21675264	1.3444047	0.95572869	-0.088159784	1.3338875	0.96972202	0.15289854	1.170006	1.010186	0.014198104	1.3193501	1.4049358	-0.16289668	1.3093326	1.4333591	0.16843736	1.2428988	1.4681411	0.00032579929	1.1663299	1.0689446	-0.20409071	1.1841824	1.0841652	0.2724189	1.2636268	0.83398608	-0.27093282	1.4023515	0.90774292	0.26080872
423	1.688	1.7662626	0.13223972	-0.083555286	1.0677786	0.039938128	0.063461221	1.6137076	0.097679622	-0.10449064	0.9321089	0.093337472	0.095275135	1.6387831	0.12547411	-0.012457434	0.95727855	0.12886582	0.006214607	1.5726609	0.0339996	-0.050104938	0.8613522	0.095104469	0.043494028	1.4654712	0.48966149	-0.12975887	1.1744483	0.48845915	0.16601378	1.4742433	0.48068391	-0.002663222	1.1611889	0.48133716	0.040616015	1.2860949	0.86058624	-0.15182649	1.2401156	0.88676371	0.21639618	1.3506786	0.95456981	-0.088612042	1.3399397	0.96849158	0.15260074	1.1761171	1.0090928	0.013433712	1.3246452	1.4040118	-0.16333282	1.3142276	1.4322362	0.16811575	1.2480198	1.4670697	-0.0001542767	1.1719419	1.0678545	-0.20469255	1.1895822	1.0829848	0.27186245	1.2694683	0.83293771	-0.27135983	1.4071883	0.90614845	0.26085779
424	1.692	1.7688637	0.12764794	-0.083603734	1.0679487	0.039961473	0.063724448	1.6159662	0.095251047	-0.10448049	0.93321897	0.094912831	0.09583969	1.6413535	0.1227401	-0.012391799	0.95863304	0.13021596	0.0067644867	1.5740362	0.032139123	-0.050183067	0.8623678	0.097533271	0.04411891	1.472588	0.48913439	-0.13000187	1.1794421	0.48734375	0.16655519	1.4821233	0.48091224	-0.002889967	1.1671527	0.48031776	0.04127781	1.2917577	0.86004318	-0.15262345	1.2450567	0.88572463	0.2160564	1.3569781	0.95351022	-0.089067939	1.3460423	0.96727019	0.15228029	1.1823001	1.0080335	0.012760641	1.3299397	1.40311	-0.16379355	1.3191597	1.4311216	0.16777911	1.2531693	1.4659951	-0.0006279386	1.177623	1.066772	-0.20525753	1.1949669	1.0818124	0.27127416	1.2753559	0.8318919	-0.27177085	1.4119781	0.9045331	0.26092324
425	1.696	1.7711289	0.12297413	-0.08333931	1.0681454	0.040002941	0.063991915	1.6179274	0.092723314	-0.10444881	0.93442168	0.096556333	0.096367726	1.6435031	0.11989629	-0.012288012	0.96011844	0.13164599	0.0073128654	1.5750157	0.030194338	-0.050331937	0.86349502	0.10009289	0.044698244	1.4795631	0.4885612	-0.13011453	1.1842969	0.48623976	0.16729857	1.4899297	0.48114198	-0.0031670508	1.1729019	0.4793646	0.041601634	1.297156	0.85957941	-0.15341557	1.2500348	0.88470778	0.21572887	1.3633035	0.95254999	-0.089541375	1.3521943	0.96606245	0.15193729	1.1885602	1.0069905	0.012188399	1.3352383	1.4022135	-0.16427534	1.3241299	1.4300145	0.16741417	1.2583338	1.4649089	-0.0010888817	1.1833794	1.065686	-0.20579392	1.2003002	1.0806427	0.27062551	1.2812925	0.83085658	-0.27216553	1.4167265	0.90289008	0.2610028
426	1.7	1.7730741	0.11823729	-0.082744235	1.0683773	0.040083675	0.064209513	1.6195998	0.090115371	-0.10437463	0.9357141	0.098243429	0.096862997	1.6452507	0.11696234	-0.012127095	0.96174273	0.1331568	0.0078556134	1.5756431	0.028158652	-0.050511083	0.86474514	0.10279094	0.045212797	1.4863813	0.4879446	-0.13009563	1.1891095	0.4851549	0.16821269	1.4976459	0.48134354	-0.0035209075	1.1785688	0.47824394	0.041646671	1.3023066	0.85913018	-0.15420058	1.2550924	0.88370087	0.21540176	1.3696751	0.95167934	-0.090045106	1.3584014	0.96487153	0.15156628	1.194881	1.0059405	0.011698281	1.3405498	1.4013191	-0.16477569	1.3291293	1.4289168	0.16701407	1.2634994	1.4638038	-0.0015451311	1.1891868	1.0645769	-0.20634174	1.2055256	1.0794647	0.26987972	1.2872828	0.82983939	-0.27254433	1.4214358	0.90122318	0.2610958
427	1.704	1.77472	0.11336997	-0.081843925	1.0686377	0.040208318	0.064334793	1.6209974	0.087434516	-0.10422044	0.93698738	0.10001289	0.09738712	1.6466051	0.11395234	-0.011872265	0.96351335	0.13474611	0.0083886978	1.5759417	0.026058597	-0.050685538	0.86612471	0.1056266	0.045638364	1.4931602	0.48730501	-0.13003406	1.1941988	0.48407674	0.16916391	1.5052335	0.48148573	-0.0039641436	1.1845882	0.47681443	0.041847307	1.3073279	0.85864179	-0.15498977	1.2602915	0.88269638	0.2150555	1.3761203	0.95087929	-0.09058467	1.3646654	0.963692	0.15115915	1.2012301	1.0048734	0.011260018	1.3458799	1.4004382	-0.16528917	1.3341508	1.4278303	0.16657972	1.2686536	1.4626761	-0.0020202159	1.1949835	1.06344	-0.20695214	1.2106012	1.0782689	0.26901894	1.2933296	0.82884425	-0.27290567	1.4261027	0.89954214	0.26120185
428	1.708	1.7761373	0.10823501	-0.08069806	1.0689201	0.040369516	0.064382242	1.6221868	0.084708283	-0.10394004	0.93815538	0.10193679	0.097973009	1.6476266	0.11092924	-0.011467943	0.96543476	0.13640656	0.0089108456	1.5759614	0.024016489	-0.050819692	0.86763607	0.10859263	0.045963955	1.5000341	0.48666047	-0.13004814	1.1999769	0.48296099	0.16995205	1.5126424	0.48152801	-0.0044959259	1.1910556	0.47518386	0.042392407	1.3124017	0.85808546	-0.15578065	1.265701	0.88169597	0.21466996	1.3826499	0.95012463	-0.091145514	1.3709776	0.96251335	0.15071471	1.2075845	1.0037913	0.01085724	1.3512271	1.3995821	-0.16580929	1.3391884	1.4267555	0.16611778	1.2737947	1.4615298	-0.0025261467	1.2006982	1.062284	-0.20768163	1.2155638	1.0770717	0.2680806	1.2994306	0.8278733	-0.27324838	1.4307213	0.89784929	0.26132045
429	1.712	1.7774957	0.10270702	-0.079388344	1.0692229	0.040549223	0.064420084	1.6233331	0.082051646	-0.10349147	0.93929193	0.10403179	0.098569505	1.6485197	0.10806011	-0.01086732	0.96750448	0.13813038	0.0094268099	1.5758524	0.022292403	-0.050834193	0.8692796	0.11168715	0.046205262	1.507024	0.48600389	-0.13019884	1.206528	0.48174959	0.170483	1.519848	0.48141976	-0.0051012575	1.1976503	0.47356147	0.043066323	1.3176513	0.85746095	-0.15654661	1.2713574	0.88068301	0.21422441	1.3892463	0.949392	-0.091695863	1.3773299	0.96133044	0.1502385	1.2139489	1.0027015	0.010482758	1.3565887	1.3987543	-0.16633075	1.3442435	1.4256949	0.16563553	1.2789303	1.4603776	-0.0030475146	1.2063008	1.0611114	-0.2085672	1.220509	1.0759116	0.26712366	1.3055824	0.82692895	-0.27357594	1.4352917	0.89614075	0.26145321
430	1.716	1.7790996	0.096824204	-0.07798463	1.0695478	0.040728399	0.064510904	1.624708	0.079702933	-0.10286676	0.94055598	0.10623753	0.099126319	1.6496817	0.10559137	-0.010091671	0.96971828	0.1399136	0.0099498596	1.5758821	0.021230089	-0.050613693	0.87105877	0.11491631	0.046394881	1.5140227	0.48531315	-0.13048561	1.2134509	0.4804256	0.1708745	1.5268491	0.48111141	-0.0057445729	1.2041968	0.47202253	0.04369499	1.3231252	0.85679127	-0.15726807	1.2772229	0.87962628	0.21369637	1.3958677	0.94867736	-0.092204523	1.3837199	0.96014685	0.14973607	1.2203348	1.0016238	0.010120372	1.3619662	1.3979539	-0.16685096	1.3493282	1.4246494	0.16513967	1.2840648	1.4592379	-0.0035655488	1.2118558	1.0599428	-0.20953626	1.2255049	1.0748084	0.2661341	1.3117878	0.82601217	-0.27389302	1.4398199	0.89441802	0.26160372
431	1.72	1.7813276	0.090828384	-0.076533496	1.069893	0.040895492	0.064682002	1.6266059	0.077939702	-0.10214327	0.94206393	0.10847807	0.099695297	1.6515958	0.10370513	-0.009272955	0.97207396	0.14175322	0.010496163	1.5763443	0.021099008	-0.050111321	0.8729821	0.11828708	0.046568288	1.5208702	0.48458667	-0.13088022	1.2203265	0.47905485	0.17131807	1.5336338	0.48057632	-0.0063675421	1.2108191	0.47049955	0.044310847	1.3288779	0.85611224	-0.15794685	1.2832463	0.87850423	0.2130767	1.4024631	0.94800739	-0.092649033	1.390145	0.95896853	0.149213	1.2267221	1.0005954	0.0097463135	1.3673655	1.3971819	-0.16737384	1.3544541	1.4236195	0.16463861	1.289207	1.4581389	-0.0040775562	1.2174906	1.0588261	-0.21043006	1.2306064	1.073749	0.2650085	1.3180549	0.82512057	-0.27419809	1.4443091	0.89268883	0.26177263
432	1.724	1.7844253	0.085028356	-0.075090743	1.0702508	0.041049002	0.064931572	1.6292089	0.076891636	-0.10149141	0.94385745	0.1107227	0.10038941	1.654557	0.10237974	-0.008608834	0.97456907	0.14364462	0.011080837	1.5774136	0.021923296	-0.04944848	0.87506291	0.12180344	0.046760855	1.5274518	0.48387335	-0.13133481	1.2271572	0.47775268	0.17189274	1.5401663	0.47983781	-0.0069136553	1.2176191	0.46890707	0.044950372	1.3349956	0.85546357	-0.15859398	1.2894125	0.87730665	0.212378	1.4089962	0.94742309	-0.093025721	1.396606	0.95779349	0.14867955	1.2330605	0.99966426	0.0093364813	1.3727927	1.3964431	-0.16790619	1.3596248	1.4226126	0.16414296	1.294376	1.4571183	-0.0045965051	1.2232817	1.0577854	-0.21116905	1.2359202	1.0727178	0.26368189	1.3243864	0.82425049	-0.27448324	1.4487578	0.89095681	0.26195601
433	1.728	1.7882927	0.07969122	-0.073727754	1.070625	0.041203847	0.065227167	1.6324937	0.076422028	-0.10109515	0.94590757	0.11300601	0.10123225	1.6584259	0.10141355	-0.0082410455	0.97720591	0.14558376	0.011721669	1.579064	0.023431756	-0.048886737	0.87732131	0.12546747	0.047009936	1.5337652	0.48327511	-0.13179415	1.2342091	0.47658483	0.17254948	1.5463906	0.4789906	-0.0073725434	1.2245797	0.46719657	0.045582873	1.3415453	0.85489189	-0.15923591	1.2957079	0.87603134	0.21162578	1.4154588	0.94695135	-0.09335678	1.4031033	0.95661073	0.14814883	1.2393116	0.99886304	0.0088768073	1.3782479	1.3957424	-0.16845248	1.3648357	1.4216364	0.163663	1.299593	1.4562096	-0.0051432868	1.2292168	1.0568035	-0.21178374	1.2415356	1.0717171	0.2622685	1.3307716	0.82340084	-0.27474196	1.4531626	0.88921687	0.26215008
434	1.732	1.7925056	0.074967021	-0.072485131	1.0710397	0.04138487	0.065527137	1.6362486	0.076220247	-0.10104964	0.94813321	0.11541015	0.10211357	1.6626476	0.10057472	-0.0081734192	0.97999773	0.1475686	0.012437766	1.5811099	0.025197013	-0.04869413	0.87978472	0.1292822	0.047348194	1.53991	0.48291248	-0.1322279	1.2415938	0.47549906	0.17320801	1.552238	0.47818907	-0.0077892996	1.2317088	0.46535923	0.046188541	1.3485345	0.85445592	-0.15991427	1.3021113	0.87468611	0.21085193	1.4218569	0.94660247	-0.093672151	1.4096235	0.95541429	0.14762876	1.2454774	0.99818314	0.0083884971	1.3837274	1.395082	-0.16901949	1.3700763	1.4206972	0.16320492	1.3048811	1.4554287	-0.0057245586	1.2352464	1.0558545	-0.21230913	1.2474188	1.0707553	0.26099539	1.3371977	0.82257404	-0.27497397	1.4575227	0.88746256	0.26235282
